# xmcd
#
# Track frame offsets: 
#        150
#        17992
#        43733
#        71753
#        100272
#        119358
#        140551
#        169867
#        193615
#        216557
#
# Disc length: 3205 seconds
#
# Revision: 0
# Processed by: cddbd v1.5.2PL0 Copyright (c) Steve Scherf et al.
# Submitted via: ExactAudioCopy v1.0b3
#
DISCID=9c0c830a
DTITLE=Duy Khanh - Di Tim Bong Mat Que Huong
DYEAR=1992
DGENRE=
TTITLE0=Trai tim Viet Nam
TTITLE1=Tam diep khuc
TTITLE2=Bo lang ra di
TTITLE3=Bong mat
TTITLE4=Thuyen em di trong dem
TTITLE5=Dan chim trang
TTITLE6=Ta on nguoi
TTITLE7=Dem nguyen cau
TTITLE8=Nhung ban chan
TTITLE9=Mau chay ve tim
EXTD=
EXTT0=
EXTT1=
EXTT2=
EXTT3=
EXTT4=
EXTT5=
EXTT6=
EXTT7=
EXTT8=
EXTT9=
PLAYORDER=
